PathFileType	4	(X/Y/Z)	 s01c0402.trc
DataRate	CameraRate	NumFrames	NumMarkers	Units	OrigDataRate	OrigDataStartFrame	OrigNumFrames
200	200	4	48	mm	200	1751	2000
Frame#	Time	racr			lacr			c7			jug			rlel			rdr			llel			ldr			s2			lic			ric			lasi			rasi			rpsi			lpsi			rgt			lgt			rth1			rth2			rth3			rth4			rlfc			rsh1			rsh2			rsh3			rsh4			rlmal			rmmal			rcal			rtoe			rmt5			lth1			lth2			lth4			lth3			llfc			lsh1			lsh2			lsh3			lsh4			llmal			lmmal			lcal			ltoe			lmt5			SBIKE			LBIKE			RBIKE			
		X1	Y1	Z1	X2	Y2	Z2	X3	Y3	Z3	X4	Y4	Z4	X5	Y5	Z5	X6	Y6	Z6	X7	Y7	Z7	X8	Y8	Z8	X9	Y9	Z9	X10	Y10	Z10	X11	Y11	Z11	X12	Y12	Z12	X13	Y13	Z13	X14	Y14	Z14	X15	Y15	Z15	X16	Y16	Z16	X17	Y17	Z17	X18	Y18	Z18	X19	Y19	Z19	X20	Y20	Z20	X21	Y21	Z21	X22	Y22	Z22	X23	Y23	Z23	X24	Y24	Z24	X25	Y25	Z25	X26	Y26	Z26	X27	Y27	Z27	X28	Y28	Z28	X29	Y29	Z29	X30	Y30	Z30	X31	Y31	Z31	X32	Y32	Z32	X33	Y33	Z33	X34	Y34	Z34	X35	Y35	Z35	X36	Y36	Z36	X37	Y37	Z37	X38	Y38	Z38	X39	Y39	Z39	X40	Y40	Z40	X41	Y41	Z41	X42	Y42	Z42	X43	Y43	Z43	X44	Y44	Z44	X45	Y45	Z45	X46	Y46	Z46	X47	Y47	Z47	X48	Y48	Z48	
1751	8.7550	671.655887	1295.401147	-102.955602	698.455276	1269.663529	-479.446372	696.775188	1378.836385	-290.382329	662.503000	1218.287258	-283.111981	536.492284	1062.068110	17.280171	694.959779	887.282059	-39.459941	542.007517	1032.563567	-571.479558	680.118778	874.204107	-444.810009	147.981598	1223.865660	-287.177769	309.992358	1199.682323	-463.379318	311.923054	1210.412340	-141.131856	299.452793	1140.755920	-442.941690	329.298360	1160.822272	-170.599568	185.717681	1257.940992	-240.576804	180.206128	1253.836918	-346.773206	254.365953	1119.512208	-95.538646	205.563398	1064.291685	-475.232332	356.324017	1038.997794	-89.462301	430.745825	1001.967383	-91.833211	506.550075	955.047592	-104.180147	455.982795	1047.734170	-114.360073	571.386617	871.157600	-127.393504	475.336426	812.610492	-91.305373	408.480686	760.695635	-89.361887	332.862741	713.317823	-94.234665	435.649636	720.232998	-124.792906	224.513030	649.106172	-104.337729	261.851151	628.613436	-184.577213	170.254396	657.003525	-158.531325	342.076010	447.251387	-134.288510	248.528667	505.944039	-69.118581	216.454879	934.643711	-476.698643	258.656837	852.369106	-471.999131	303.045348	874.709500	-475.565636	281.759645	775.586306	-451.379382	312.900539	659.039312	-434.913763	246.057414	566.589494	-461.788062	225.625050	482.545993	-453.263272	203.206291	400.959545	-436.707985	281.711686	471.875052	-429.472465	170.769967	280.181937	-416.160259	NaN	NaN	NaN	119.948618	267.343788	-374.474973	366.380168	139.803453	-370.888050	264.032420	160.123351	-441.045150	-224.409170	893.363949	-252.584389	-12.522943	84.841650	-456.063272	-21.576751	81.168671	-55.953308	
1752	8.7600	671.575106	1296.192272	-103.960243	698.013973	1270.396457	-479.784368	696.391719	1379.216709	-290.942074	662.028412	1218.788884	-283.686177	537.145011	1062.696144	17.129364	695.094669	887.365724	-39.482080	542.422764	1032.735503	-571.592201	679.988012	874.026330	-444.530497	147.588014	1224.456838	-287.093059	309.821828	1199.161073	-462.992153	311.744382	1210.890466	-141.443693	298.620237	1140.848101	-442.952106	328.809867	1160.919681	-170.922463	185.289355	1258.397758	-240.549417	179.578524	1254.221849	-346.774197	254.174176	1119.770933	-95.515976	204.243706	1064.448202	-475.036083	355.543860	1038.395689	-89.551323	429.636132	1000.717059	-92.009668	505.278089	953.268255	-104.521208	455.173563	1046.322167	-114.725777	568.901724	868.750468	-127.639455	472.017881	811.220105	-91.634210	404.916804	759.681658	-89.544366	329.090585	712.579276	-94.321424	432.071959	718.706980	-124.383299	220.782238	648.705655	-104.372781	257.706962	627.850226	-184.578966	166.719019	657.181937	-158.609735	336.323067	445.587034	-134.260430	243.092023	505.219927	-69.261660	215.122678	934.919007	-476.236819	257.654369	852.778555	-471.840363	301.697947	874.810459	-475.669074	280.231614	775.752514	-450.984966	312.544748	659.432440	-434.677309	246.422011	566.389483	-461.453137	226.713435	482.180053	-452.862120	205.098933	400.419535	-436.223873	283.054847	471.882703	-429.298981	174.000728	279.416830	-415.779536	NaN	NaN	NaN	123.422338	265.779498	-374.155902	371.580856	141.674689	-370.872989	268.934307	160.621902	-441.014711	-224.391296	893.336136	-252.580350	-12.528274	84.821020	-456.058505	-21.592332	81.160269	-55.955089	
1753	8.7650	671.490676	1296.716749	-104.675963	697.507414	1271.014761	-480.135166	695.897637	1379.618329	-291.583458	661.631149	1219.229708	-284.112915	537.965942	1063.367809	16.878421	695.240467	887.424884	-39.513926	542.922945	1032.857888	-571.559642	679.831048	873.844809	-444.217596	147.083071	1224.858636	-287.019955	309.619767	1198.324355	-462.562222	311.507111	1211.256929	-141.671723	297.826401	1140.741848	-442.727027	328.299330	1160.834516	-171.235521	184.788294	1258.792884	-240.545664	178.819091	1254.577404	-346.804000	253.924967	1119.959349	-95.494752	203.196049	1064.451947	-474.846253	354.765809	1037.822344	-89.653789	428.562109	999.441564	-92.214022	504.319635	951.441520	-104.891792	454.265595	1044.679097	-115.051186	566.228626	866.274853	-127.615569	468.662996	809.580868	-91.954140	401.292541	758.389776	-89.621173	325.119314	711.777075	-93.999792	428.437885	717.054942	-124.075907	217.044560	648.003458	-104.387809	253.490433	626.954373	-184.584893	163.190934	656.984278	-158.647460	330.821061	443.969635	-134.240265	238.108847	504.370488	-69.303617	214.145399	935.055821	-475.530959	256.866056	853.152065	-471.689690	300.553892	874.906579	-475.978943	279.364286	775.896452	-450.817471	312.442547	659.752139	-434.001301	247.006226	566.236422	-461.138862	227.994057	481.863609	-452.406595	207.005876	399.948907	-435.758875	284.445541	472.019892	-429.074342	177.025496	278.741361	-415.311205	NaN	NaN	NaN	126.687830	264.437419	-373.761164	376.420124	143.691009	-370.903064	273.489202	161.196049	-440.880341	-224.379583	893.306674	-252.572006	-12.640103	84.491994	-456.222033	-21.587867	81.152009	-55.945616	
1754	8.7700	671.269894	1297.540943	-105.611894	697.026194	1271.609794	-480.455371	695.440646	1379.992428	-292.208585	661.166189	1219.653222	-284.701606	538.701307	1064.041698	16.795522	695.353991	887.495615	-39.509573	543.282944	1032.910409	-571.727294	679.665231	873.662218	-443.902650	146.538209	1225.113030	-287.007493	309.427071	1197.529486	-462.205045	311.222445	1211.471871	-141.865204	297.090029	1140.650620	-442.518507	327.781991	1160.623078	-171.438048	184.229197	1259.138325	-240.559099	178.108821	1254.829810	-346.958547	253.616795	1120.059562	-95.513732	202.308687	1064.429585	-474.713222	353.989830	1037.012818	-89.696671	427.444587	998.105261	-92.319402	503.042594	949.510493	-105.149468	453.535863	1043.225311	-115.355069	563.320771	863.510228	-127.046377	465.290121	807.615354	-92.038683	397.746430	756.681000	-89.581222	321.350982	710.515485	-93.980355	424.807901	715.084090	-123.753501	213.182275	647.094392	-104.333953	249.215697	625.962250	-184.597327	159.549994	656.584383	-158.686212	325.759413	442.452627	-134.240595	233.339986	503.463070	-69.286319	213.400879	935.191575	-475.285516	256.299601	853.495715	-471.549335	299.799633	875.038935	-476.228490	278.519032	776.227322	-450.411595	312.715322	660.063836	-433.595227	247.845700	566.190221	-460.788866	229.287082	481.790601	-452.069244	208.878940	399.714965	-435.329711	285.901653	472.262873	-428.812166	179.827292	278.276903	-414.859291	NaN	NaN	NaN	129.756855	263.278704	-373.383669	380.957431	145.700097	-370.981876	277.716559	161.931839	-440.797266	-224.387983	893.289099	-252.578242	-12.641856	84.468528	-456.228995	-21.587698	81.135768	-55.958912	
